<svg height="512pt" viewBox="0 0 512 512" width="512pt" xmlns="http://www.w3.org/2000/svg"><path d="m512 256c0 141.386719-114.613281 256-256 256s-256-114.613281-256-256 114.613281-256 256-256 256 114.613281 256 256zm0 0" fill="#ffda00"/><path d="m512 256c0-18.140625-1.898438-35.832031-5.488281-52.90625l-99.5-99.5-266.1875 231.679688 34.765625 34.761718-9.941406 7.660156 44.058593 44.058594 8.292969 87.433594c12.398438 1.84375 25.085938 2.8125 38 2.8125 141.386719 0 256-114.613281 256-256zm0 0" fill="#ffb000"/><path d="m188 502.851562c9.777344 2.6875 19.789062 4.816407 30 6.335938v-176.015625h-30zm0 0" fill="#f03049"/><path d="m218 333.171875h-15.667969v173.175781c5.167969 1.101563 10.390625 2.054688 15.667969 2.839844zm0 0" fill="#d1093a"/><path d="m315.152344 218.984375c0 61.9375-50.214844 145.460937-112.152344 145.460937s-112.152344-83.519531-112.152344-145.460937 50.214844-112.152344 112.152344-112.152344 112.152344 50.214844 112.152344 112.152344zm0 0" fill="#ff636e"/><path d="m203 106.832031c-.222656 0-.445312.007813-.667969.007813v257.59375c.222657 0 .445313.011718.667969.011718 61.9375 0 112.152344-83.523437 112.152344-145.460937s-50.214844-112.152344-112.152344-112.152344zm0 0" fill="#f03049"/><path d="m165.648438 377.695312 37.351562-37.351562 37.351562 37.351562c-20.628906 20.628907-54.074218 20.628907-74.703124 0zm0 0" fill="#ff636e"/><path d="m203 340.34375-.667969.664062v52.144532c13.742188.171875 27.535157-4.972656 38.019531-15.457032zm0 0" fill="#f03049"/><path d="m435 177.710938c0 61.9375-50.210938 145.460937-112.152344 145.460937-61.9375 0-112.148437-83.523437-112.148437-145.460937 0-61.941407 50.210937-112.152344 112.148437-112.152344 61.941406 0 112.152344 50.210937 112.152344 112.152344zm0 0" fill="#5a54e0"/><path d="m435 177.710938c0-61.835938-50.039062-111.976563-111.832031-112.148438v257.601562c61.792969-.285156 111.832031-83.621093 111.832031-145.453124zm0 0" fill="#3838ba"/><path d="m307.847656 506.742188c10.238282-2.105469 20.25-4.820313 30-8.109376v-165.460937h-30zm0 0" fill="#7d7def"/><path d="m337.847656 333.171875h-14.679687v169.921875c4.953125-1.34375 9.851562-2.832031 14.679687-4.460938zm0 0" fill="#6c6cef"/><path d="m285.496094 336.417969 37.351562-37.351563 37.355469 37.351563c-20.632813 20.632812-54.078125 20.632812-74.707031 0zm0 0" fill="#5a54e0"/><path d="m360.203125 336.417969-37.035156-37.035157v52.5c13.410156-.078124 26.800781-5.230468 37.035156-15.464843zm0 0" fill="#3838ba"/></svg>