<svg height="512pt" viewBox="0 0 512 512" width="512pt" xmlns="http://www.w3.org/2000/svg"><path d="m512 256c0 141.386719-114.613281 256-256 256s-256-114.613281-256-256 114.613281-256 256-256 256 114.613281 256 256zm0 0" fill="#e30058"/><path d="m171.574219 141.964844 14.464843 14.460937-86.117187 255.652344 91.769531 91.773437c20.546875 5.316407 42.097656 8.148438 64.308594 8.148438 89.113281 0 167.578125-45.542969 213.425781-114.613281l-276.636719-276.636719zm0 0" fill="#900035"/><path d="m506.597656 203.476562-134.261718-134.261718h-30v7.097656l-19.402344-18.199219-17.660156 5.160157-15.203126-10.367188-.550781 18.394531-14.554687 11.253907 92.488281 92.222656-5.355469-1.015625-22.667968-23.042969-2.472657 4.515625-22.773437-23.011719c-3.09375-4.179687-8.054688-6.894531-13.65625-6.894531-2.121094 0-4.144532.40625-6.015625 1.117187l-36.8125-36.808593-36.230469 36.230469 256.953125 256.953124c21.363281-37.386718 33.578125-80.675781 33.578125-126.820312 0-18.003906-1.867188-35.570312-5.402344-52.523438zm-164.261718-112.773437-.253907.074219.253907-.871094zm0 0" fill="#900035"/><path d="m190.195312 144.085938-90.273437 267.992187 267.992187-90.273437zm0 0" fill="#2cd729"/><path d="m367.921875 321.804688-80.039063 26.960937-56.109374 18.902344-131.851563 44.410156 44.402344-131.832031 18.917969-56.136719 26.953124-80.03125zm0 0" fill="#2cd729"/><path d="m367.921875 321.804688-12.347656 4.15625-67.691407 22.804687-30.15625 10.160156-25.953124 8.742188-131.851563 44.410156 179.136719-179.136719zm0 0" fill="#00ae00"/><path d="m257.726562 358.921875-104.648437-104.648437-53.15625 157.804687zm0 0" fill="#ffaa20"/><path d="m257.726562 358.925781-25.953124 8.742188-131.851563 44.410156 105.476563-105.476563zm0 0" fill="#e67500"/><path d="m171.574219 141.964844 21.210937-21.214844 198.460938 198.460938-21.214844 21.214843zm0 0" fill="#00a6ff"/><path d="m270.800781 241.195312 21.214844-21.214843 99.226563 99.226562-21.210938 21.214844zm0 0" fill="#006ef5"/><path d="m287.882812 348.765625-56.109374 18.902344-34.054688-7.441407-8.238281-37.722656-37.722657-8.238281-7.433593-34.019531 18.917969-56.136719 26.847656 5.863281 8.238281 37.722656 37.722656 8.238282 8.238281 37.722656 37.726563 8.238281zm0 0" fill="#ffe670"/><path d="m287.882812 348.765625-30.15625 10.160156-25.953124 8.742188-34.054688-7.441407-8.238281-37.707031 46.570312-46.570312 8.238281 37.707031 37.726563 8.238281zm0 0" fill="#ffd400"/><path d="m391.246094 212.472656h51.238281v30h-51.238281zm0 0" fill="#ffd400"/><path d="m221.46875 125.867188 36.230469-36.230469 21.210937 21.214843-36.230468 36.230469zm0 0" fill="#ffe670"/><path d="m342.335938 69.214844h30v66.496094h-30zm0 0" fill="#ffe670"/><path d="m339.429688 150.71875 11.460937 20.925781 23.445313 4.433594-16.363282 17.367187 3.03125 23.664063-21.574218-10.191406-21.570313 10.191406 3.027344-23.664063-16.359375-17.367187 23.441406-4.433594zm0 0" fill="#ffaa20"/><path d="m317.859375 217.109375 21.570313-10.191406 21.574218 10.191406-3.03125-23.664063 16.363282-17.367187-23.445313-4.433594-3.726563-6.808593-27.40625 27.40625 1.128907 1.203124zm0 0" fill="#ff8900"/><path d="m322.929688 58.113281-5.160157 17.660157 10.367188 15.199218-18.390625.550782-11.253906 14.554687-6.207032-17.320313-17.320312-6.207031 14.554687-11.25.550781-18.394531 15.199219 10.367188zm0 0" fill="#ffaa20"/><path d="m317.527344 142.328125c0 9.390625-7.609375 17-17 17-9.386719 0-17-7.609375-17-17 0-9.386719 7.613281-17 17-17 9.390625 0 17 7.613281 17 17zm0 0" fill="#2cd729"/><g fill="#00ae00"><path d="m418.828125 161.085938c0 9.386718-7.609375 17-17 17-9.386719 0-17-7.613282-17-17 0-9.390626 7.613281-17 17-17 9.390625 0 17 7.609374 17 17zm0 0"/><path d="m411.179688 271.75c0 9.390625-7.613282 17-17 17-9.390626 0-17-7.609375-17-17s7.609374-17 17-17c9.386718 0 17 7.609375 17 17zm0 0"/></g></svg>