<svg height="512pt" viewBox="0 0 512 512" width="512pt" xmlns="http://www.w3.org/2000/svg"><path d="m512 256c0 141.386719-114.613281 256-256 256s-256-114.613281-256-256 114.613281-256 256-256 256 114.613281 256 256zm0 0" fill="#ffda00"/><path d="m508.410156 298.847656-75.730468-75.734375-4.589844 9.308594-153.421875-153.421875-29.476563 195.953125-162.882812 77.167969 159.480468 159.480468c4.707032.257813 9.441407.398438 14.210938.398438 126.78125 0 232.023438-92.171875 252.410156-213.152344zm0 0" fill="#ffb000"/><path d="m237.332031 79h37.332031v119.332031h-37.332031zm0 0" fill="#7d7def"/><path d="m255.90625 79h18.761719v119.332031h-18.761719zm0 0" fill="#6c6cef"/><path d="m367.230469 191.226562-216.773438-.1875c-52.445312 0-94.960937 42.515626-94.960937 94.960938s42.515625 94.960938 94.960937 94.960938c38.15625 0 71.035157-22.519532 86.128907-54.976563h38.824218c15.097656 32.457031 47.976563 54.976563 86.132813 54.976563 52.445312 0 94.957031-42.515626 94.957031-94.960938.003906-50.535156-39.476562-91.832031-89.269531-94.773438zm0 0" fill="#5a54e0"/><path d="m367.230469 191.226562-111.328125-.097656v134.851563h19.507812c15.097656 32.460937 47.976563 54.976562 86.132813 54.976562 52.445312 0 94.957031-42.515625 94.957031-94.957031.003906-50.535156-39.476562-91.832031-89.269531-94.773438zm0 0" fill="#3838ba"/><path d="m127.300781 233.667969h30.0625v104.667969h-30.0625zm0 0" fill="#fff"/><path d="m194.667969 270.96875v30.0625h-104.667969v-30.0625zm0 0" fill="#fff"/><g fill="#e9edf5"><path d="m386.503906 243.285156c0 11.140625-9.03125 20.171875-20.171875 20.171875s-20.171875-9.03125-20.171875-20.171875 9.03125-20.171875 20.171875-20.171875 20.171875 9.03125 20.171875 20.171875zm0 0"/><path d="m386.503906 328.714844c0 11.140625-9.03125 20.171875-20.171875 20.171875s-20.171875-9.03125-20.171875-20.171875 9.03125-20.171875 20.171875-20.171875 20.171875 9.03125 20.171875 20.171875zm0 0"/><path d="m429.21875 286c0 11.140625-9.03125 20.171875-20.171875 20.171875s-20.167969-9.03125-20.167969-20.171875 9.027344-20.171875 20.167969-20.171875 20.171875 9.03125 20.171875 20.171875zm0 0"/><path d="m343.789062 286c0 11.140625-9.03125 20.171875-20.171874 20.171875-11.136719 0-20.167969-9.03125-20.167969-20.171875s9.03125-20.171875 20.167969-20.171875c11.140624 0 20.171874 9.03125 20.171874 20.171875zm0 0"/></g></svg>