<svg height="512pt" viewBox="0 0 512.00031 512" width="512pt" xmlns="http://www.w3.org/2000/svg"><path d="m108.84375 403.132812c-12.042969-12.046874-28.054688-18.675781-45.082031-18.675781-35.160157 0-63.761719 28.601563-63.761719 63.757813v48.761718c0 8.28125 6.714844 15 15 15h48.761719c35.15625 0 63.757812-28.605468 63.757812-63.761718 0-17.027344-6.632812-33.039063-18.675781-45.082032zm0 0" fill="#ff9f00"/><path d="m108.84375 403.132812-104.449219 104.449219c2.714844 2.714844 6.464844 4.390625 10.605469 4.390625h48.761719c35.15625 0 63.757812-28.601562 63.757812-63.757812 0-17.027344-6.632812-33.039063-18.675781-45.082032zm0 0" fill="#ff641a"/><path d="m263.382812 399.171875c-3.40625-4.644531-9.175781-6.929687-14.84375-5.875-29.726562 5.539063-61.542968 8.347656-94.5625 8.347656-17.933593 0-32.566406-.863281-42.015624-1.628906-1.863282-23.132813-4.296876-77.464844 6.714843-136.582031 1.078125-5.78125-1.324219-11.660156-6.144531-15.035156-4.816406-3.375-11.160156-3.621094-16.226562-.628907-31.613282 18.664063-63.394532 43.601563-91.910157 72.117188-5.859375 5.859375-5.859375 15.355469 0 21.214843l166.484375 166.480469c2.8125 2.8125 6.625 4.390625 10.605469 4.390625 3.976563 0 7.792969-1.578125 10.605469-4.394531 28.519531-28.523437 53.457031-60.304687 72.117187-91.910156 3.050781-5.164063 2.726563-11.65625-.824219-16.496094zm0 0" fill="#ff4949"/><path d="m170.878906 507.582031c2.8125 2.8125 6.628906 4.390625 10.605469 4.390625 3.980469 0 7.792969-1.578125 10.605469-4.394531 28.519531-28.523437 53.457031-60.304687 72.117187-91.910156 3.050781-5.167969 2.726563-11.65625-.824219-16.496094-3.40625-4.644531-9.175781-6.929687-14.84375-5.875-29.726562 5.539063-61.542968 8.34375-94.5625 8.34375-17.933593 0-32.566406-.859375-42.015624-1.625l-24.324219 24.324219zm0 0" fill="#f30051"/><path d="m502.863281 135.996094-126.882812-126.882813c-3.304688-3.304687-7.960938-4.882812-12.589844-4.261719-82.984375 11.070313-148.015625 39.644532-193.289063 84.914063-40.433593 40.433594-67.65625 97.011719-80.914062 168.15625 0 .007813-.003906.011719-.003906.011719-15.390625 82.636718-6.210938 154.722656-5.8125 157.753906.886718 6.730469 6.183594 12.027344 12.914062 12.914062.945313.125 23.511719 3.039063 57.691406 3.039063h.007813c34.851563 0 68.515625-2.976563 100.050781-8.851563h.003906c71.152344-13.253906 127.730469-40.476562 168.167969-80.914062 45.273438-45.269531 73.847657-110.304688 84.917969-193.289062.621094-4.632813-.957031-9.289063-4.261719-12.589844zm0 0" fill="#fef4f5"/><path d="m439.421875 72.554688-351.785156 351.78125c2.277343 2.277343 5.28125 3.824218 8.648437 4.265624.945313.125 23.511719 3.039063 57.691406 3.039063h.007813c34.851563 0 68.515625-2.976563 100.050781-8.851563h.003906c71.152344-13.253906 127.730469-40.476562 168.167969-80.914062 45.273438-45.269531 73.84375-110.304688 84.917969-193.289062.617188-4.632813-.957031-9.285157-4.261719-12.589844zm0 0" fill="#d5eded"/><path d="m405.339844 106.632812c-14.972656-14.972656-34.875-23.214843-56.046875-23.214843s-41.078125 8.242187-56.046875 23.214843c-30.902344 30.902344-30.902344 81.1875 0 112.097657 14.972656 14.96875 34.878906 23.210937 56.050781 23.210937 21.167969 0 41.074219-8.242187 56.046875-23.214844 30.902344-30.90625 30.898438-81.191406-.003906-112.09375zm0 0" fill="#a8ebfa"/><path d="m234.410156 230.433594c-12.589844 0-24.425781 4.902344-33.328125 13.804687-18.375 18.378907-18.375 48.277344 0 66.652344 8.902344 8.902344 20.738281 13.804687 33.328125 13.804687s24.425782-4.902343 33.328125-13.804687c8.902344-8.902344 13.804688-20.738281 13.804688-33.328125s-4.902344-24.421875-13.804688-33.328125c-8.902343-8.898437-20.738281-13.800781-33.328125-13.800781zm0 0" fill="#a8ebfa"/><path d="m508.9375 15.953125c-.886719-6.730469-6.183594-12.03125-12.914062-12.914063-.945313-.125-23.503907-3.039062-57.675782-3.039062-25.609375 0-50.828125 1.632812-74.957031 4.851562-5.65625.753907-10.394531 4.652344-12.222656 10.058594s-.433594 11.378906 3.601562 15.414063l126.882813 126.882812c2.859375 2.859375 6.691406 4.394531 10.609375 4.394531 1.605469 0 3.230469-.257812 4.804687-.792968 5.40625-1.828125 9.304688-6.566406 10.058594-12.222656 9.585938-71.851563 2.132812-130.183594 1.8125-132.632813zm0 0" fill="#ff4949"/><path d="m293.246094 218.730469c14.972656 14.96875 34.878906 23.210937 56.050781 23.210937 21.167969 0 41.074219-8.242187 56.046875-23.214844 30.902344-30.902343 30.898438-81.1875 0-112.09375zm0 0" fill="#76e2f8"/><path d="m234.410156 324.695312c12.589844 0 24.425782-4.902343 33.328125-13.804687 8.902344-8.902344 13.804688-20.738281 13.804688-33.328125 0-12.585938-4.902344-24.421875-13.804688-33.324219l-66.65625 66.652344c8.902344 8.902344 20.738281 13.804687 33.328125 13.804687zm0 0" fill="#76e2f8"/><path d="m504.671875 7.304688-86.460937 86.460937 63.4375 63.441406c2.859374 2.859375 6.695312 4.394531 10.609374 4.394531 1.609376 0 3.234376-.261718 4.808594-.792968 5.402344-1.828125 9.304688-6.566406 10.058594-12.226563 9.585938-71.847656 2.132812-130.183593 1.8125-132.628906-.441406-3.367187-1.988281-6.371094-4.265625-8.648437zm0 0" fill="#f30051"/></svg>