<svg height="512pt" viewBox="0 0 512 512" width="512pt" xmlns="http://www.w3.org/2000/svg"><path d="m512 256c0 141.386719-114.613281 256-256 256s-256-114.613281-256-256 114.613281-256 256-256 256 114.613281 256 256zm0 0" fill="#ff636e"/><path d="m511.808594 265.46875-182.859375-182.859375-51.4375 30 63.832031 63.828125 26.777344 202.734375-156.789063-2.503906-47.296875-47.292969-67.695312 68.804688 108.753906 108.75c16.453125 3.320312 33.476562 5.070312 50.90625 5.070312 138.214844 0 250.824219-109.535156 255.808594-246.53125zm0 0" fill="#f03049"/><path d="m156.78125 355.394531h202.183594v30h-202.183594zm0 0" fill="#fff"/><path d="m255.90625 355.394531h103.058594v30h-103.058594zm0 0" fill="#e9edf5"/><path d="m368.140625 353.425781-62.410156-240.820312h-28.21875v-30h51.433593l68.238282 263.292969zm0 0" fill="#e9edf5"/><path d="m430.945312 363.121094c0 26.664062-21.617187 48.28125-48.28125 48.28125-26.664062 0-48.28125-21.617188-48.28125-48.28125 0-26.664063 21.617188-48.28125 48.28125-48.28125 26.664063 0 48.28125 21.617187 48.28125 48.28125zm0 0" fill="#3838ba"/><path d="m406.363281 363.117188c0 13.089843-10.613281 23.699218-23.699219 23.699218-13.089843 0-23.699218-10.609375-23.699218-23.699218 0-13.085938 10.609375-23.695313 23.699218-23.695313 13.085938 0 23.699219 10.609375 23.699219 23.695313zm0 0" fill="#6b6bed"/><path d="m177.796875 363.121094c0 26.664062-21.613281 48.28125-48.28125 48.28125-26.664063 0-48.28125-21.617188-48.28125-48.28125 0-26.664063 21.617187-48.28125 48.28125-48.28125 26.667969 0 48.28125 21.617187 48.28125 48.28125zm0 0" fill="#5a54e0"/><path d="m153.214844 363.117188c0 13.089843-10.609375 23.699218-23.699219 23.699218-13.085937 0-23.699219-10.609375-23.699219-23.699218 0-13.085938 10.613282-23.695313 23.699219-23.695313 13.089844 0 23.699219 10.609375 23.699219 23.695313zm0 0" fill="#6b6bed"/></svg>