<svg height="512pt" viewBox="0 0 511 512" width="512pt" xmlns="http://www.w3.org/2000/svg"><path d="m497.753906 189.285156c-9.496094-9.496094-22.117187-14.726562-35.546875-14.726562-13.425781 0-26.050781 5.230468-35.542969 14.726562l-74.8125 74.8125c-13.820312 13.816406-32.195312 21.429688-51.738281 21.429688s-37.917969-7.609375-51.734375-21.429688c-13.820312-13.820312-21.429687-32.191406-21.429687-51.738281 0-19.542969 7.609375-37.914063 21.429687-51.734375l74.8125-74.816406c19.597656-19.597656 19.597656-51.484375 0-71.082032-9.492187-9.496093-22.117187-14.726562-35.542968-14.726562-13.402344 0-26.007813 5.214844-35.511719 14.691406l-74.730469 74.730469c-.003906.003906-.011719.011719-.015625.015625-.097656.097656-.191406.191406-.289063.289062-27.90625 27.996094-45.558593 65.007813-49.710937 104.25-3.671875 34.695313 3.261719 69.910157 19.59375 100.433594l-56.976563 56.96875c-2.8125 2.8125-4.390624 6.628906-4.390624 10.605469 0 3.980469 1.578124 7.792969 4.390624 10.605469l49.878907 49.875c2.929687 2.929687 6.769531 4.394531 10.605469 4.394531 3.839843 0 7.679687-1.464844 10.605468-4.394531l56.964844-56.964844c25.128906 13.480469 53.261719 20.558594 82.0625 20.558594h.011719c46.386719 0 90-18.066406 122.804687-50.871094l74.8125-74.816406c9.492188-9.492188 14.722656-22.117188 14.722656-35.542969 0-13.429687-5.230468-26.050781-14.722656-35.542969zm0 0" fill="#e56705"/><path d="m497.753906 189.285156c-9.496094-9.496094-22.117187-14.726562-35.546875-14.726562-13.425781 0-26.050781 5.230468-35.542969 14.726562l-74.8125 74.8125c-13.820312 13.816406-32.195312 21.429688-51.738281 21.429688s-37.917969-7.609375-51.734375-21.429688c0 0 0 0-.003906 0l-133.429688 133.429688 24.9375 24.9375c2.933594 2.929687 6.769532 4.394531 10.609376 4.394531 3.839843 0 7.679687-1.464844 10.605468-4.394531l56.964844-56.964844c25.128906 13.480469 53.257812 20.558594 82.058594 20.558594h.011718c46.386719 0 90-18.066406 122.804688-50.871094l74.8125-74.816406c9.496094-9.492188 14.726562-22.113282 14.726562-35.542969s-5.230468-26.050781-14.722656-35.542969zm0 0" fill="#a24603"/><path d="m111.222656 451.128906-49.875-49.875c-2.8125-2.816406-6.628906-4.394531-10.605468-4.394531-3.980469 0-7.792969 1.578125-10.605469 4.394531l-24.9375 24.9375c-19.597657 19.597656-19.597657 51.488282 0 71.085938 9.492187 9.492187 22.117187 14.722656 35.542969 14.722656 13.425781 0 26.050781-5.230469 35.542968-14.722656l24.9375-24.9375c2.8125-2.8125 4.394532-6.628906 4.394532-10.605469s-1.582032-7.792969-4.394532-10.605469zm0 0" fill="#d55f05"/><path d="m86.285156 426.191406-71.085937 71.085938c9.492187 9.492187 22.117187 14.722656 35.542969 14.722656 13.425781 0 26.050781-5.230469 35.542968-14.722656l24.9375-24.9375c2.8125-2.8125 4.394532-6.628906 4.394532-10.605469s-1.582032-7.792969-4.394532-10.605469zm0 0" fill="#d55f05"/><path d="m300.117188 102.675781c-3.839844 0-7.679688-1.464843-10.609376-4.398437l-49.875-49.875c-5.855468-5.855469-5.855468-15.351563 0-21.210938 5.859376-5.859375 15.355469-5.859375 21.214844 0l49.875 49.875c5.859375 5.855469 5.859375 15.355469 0 21.210938-2.929687 2.933594-6.769531 4.398437-10.605468 4.398437zm0 0" fill="#ff4949"/><path d="m474.675781 277.234375c-3.839843 0-7.675781-1.464844-10.605469-4.394531l-49.875-49.875c-5.855468-5.859375-5.855468-15.355469.003907-21.210938 5.855469-5.859375 15.351562-5.859375 21.210937 0l49.875 49.875c5.855469 5.859375 5.855469 15.355469-.003906 21.214844-2.925781 2.929688-6.765625 4.390625-10.605469 4.390625zm0 0" fill="#f30051"/><path d="m69.605469 383.066406c-5.601563 0-10.972657-3.144531-13.546875-8.539062-31.660156-66.285156-18.019532-145.742188 33.949218-197.714844l149.625-149.621094c5.859376-5.855468 15.355469-5.855468 21.214844 0 5.855469 5.855469 5.855469 15.355469 0 21.210938l-149.625 149.625c-42.996094 43-54.289062 108.734375-28.09375 163.570312 3.570313 7.476563.40625 16.429688-7.070312 20-2.085938 1-4.285156 1.46875-6.453125 1.46875zm0 0" fill="#fef4f5"/><path d="m212.628906 473.320312c-25.335937 0-50.855468-5.523437-74.675781-16.902343-7.476563-3.570313-10.644531-12.523438-7.070313-20 3.570313-7.476563 12.523438-10.640625 20-7.070313 54.835938 26.195313 120.566407 14.898438 163.5625-28.09375l149.625-149.625c5.855469-5.855468 15.355469-5.855468 21.210938 0 5.859375 5.855469 5.859375 15.355469 0 21.214844l-149.621094 149.621094c-33.292968 33.292968-77.867187 50.855468-123.03125 50.855468zm0 0" fill="#d5eded"/><path d="m161.097656 401.253906-49.875-49.875c-6.148437-6.152344-14.34375-9.535156-23.074218-9.535156-8.730469 0-16.925782 3.382812-23.074219 9.535156l-24.9375 24.933594c-6.148438 6.152344-9.539063 14.347656-9.539063 23.078125 0 8.726563 3.386719 16.925781 9.539063 23.074219l49.871093 49.871094c6.148438 6.152343 14.34375 9.542968 23.078126 9.542968 8.730468 0 16.925781-3.390625 23.074218-9.539062l24.9375-24.941406c12.722656-12.71875 12.722656-33.421876 0-46.144532zm0 0" fill="#ffde46"/><path d="m136.160156 376.316406-71.085937 71.085938 24.933593 24.933594c6.148438 6.152343 14.34375 9.542968 23.078126 9.542968 8.730468 0 16.929687-3.390625 23.074218-9.539062l24.941406-24.9375c12.71875-12.722656 12.71875-33.425782-.003906-46.148438zm0 0" fill="#ff9f04"/></svg>