<svg height="512pt" viewBox="0 0 512 512" width="512pt" xmlns="http://www.w3.org/2000/svg"><path d="m512 256c0 141.386719-114.613281 256-256 256s-256-114.613281-256-256 114.613281-256 256-256 256 114.613281 256 256zm0 0" fill="#ffda00"/><path d="m509.835938 289.378906-203.503907-203.503906-204.164062 286.871094 138.804687 138.804687c4.972656.285157 9.980469.449219 15.027344.449219 130.070312 0 237.476562-97.007812 253.835938-222.621094zm0 0" fill="#ffb000"/><path d="m396.074219 257.679688c-14.085938-8.132813-29.769531-10.984376-44.765625-9.175782-8.617188 1.039063-17.34375-.605468-24.816406-5.019531l-2.183594-1.285156c-11.78125-6.953125-19.007813-19.613281-19.007813-33.289063v-3.613281c0-8.511719 2.796875-16.785156 7.992188-23.527344 9.820312-12.738281 15.492187-28.839843 14.976562-46.289062-1.125-38.183594-32.304687-69.195313-70.5-70.125-40.773437-.992188-74.132812 31.761719-74.132812 72.308593 0 16.484376 5.515625 31.675782 14.800781 43.839844 5.234375 6.855469 8.199219 15.171875 8.199219 23.796875v3.605469c0 13.679688-7.230469 26.339844-19.011719 33.289062l-2.1875 1.292969c-7.367188 4.351563-15.96875 6.125-24.457031 5.058594-15.839844-1.992187-32.46875 1.222656-47.1875 10.371094-32.371094 20.121093-43.539063 62.519531-25.296875 95.984375 19.523437 35.816406 64.578125 48.335937 99.699218 28.0625 14.464844-8.351563 24.949219-20.945313 30.796876-35.304688 3.234374-7.9375 8.886718-14.652344 16.269531-19.007812l1.0625-.625c12.121093-7.15625 27.167969-7.15625 39.289062 0l1.0625.625c7.382813 4.355468 13.035157 11.070312 16.269531 19.007812 5.847657 14.359375 16.332032 26.953125 30.796876 35.304688 34.597656 19.972656 78.835937 8.121094 98.808593-26.476563 19.972657-34.597656 8.121094-78.835937-26.476562-98.808593zm0 0" fill="#5a54e0"/><path d="m396.074219 257.679688c-14.085938-8.132813-29.769531-10.984376-44.765625-9.175782-8.617188 1.039063-17.339844-.605468-24.816406-5.019531l-2.183594-1.285156c-11.777344-6.953125-19.007813-19.613281-19.007813-33.289063v-3.613281c0-8.511719 2.800781-16.785156 7.992188-23.527344 9.820312-12.738281 15.492187-28.839843 14.976562-46.289062-1.125-38.183594-32.304687-69.195313-70.5-70.125-.625-.015625-1.242187 0-1.863281.003906v257.304687c6.8125-.011718 13.628906 1.777344 19.707031 5.363282l1.0625.625c7.382813 4.359375 13.035157 11.074218 16.269531 19.011718 5.847657 14.355469 16.332032 26.949219 30.796876 35.300782 34.59375 19.972656 78.832031 8.121094 98.808593-26.476563 19.972657-34.597656 8.121094-78.835937-26.476562-98.808593zm0 0" fill="#4141ce"/><path d="m297.5 256c0 22.917969-18.582031 41.5-41.5 41.5s-41.5-18.582031-41.5-41.5 18.582031-41.5 41.5-41.5 41.5 18.582031 41.5 41.5zm0 0" fill="#7d7def"/><path d="m256 214.5c-.03125 0-.0625.003906-.09375.003906v82.992188c.03125 0 .0625.003906.09375.003906 22.921875 0 41.5-18.582031 41.5-41.5 0-22.921875-18.578125-41.5-41.5-41.5zm0 0" fill="#6c6cef"/><path d="m285.238281 133.5c0 16.148438-13.089843 29.238281-29.238281 29.238281s-29.238281-13.089843-29.238281-29.238281 13.089843-29.238281 29.238281-29.238281 29.238281 13.089843 29.238281 29.238281zm0 0" fill="#3838ba"/><path d="m256 104.261719c-.03125 0-.0625 0-.09375 0v58.476562h.09375c16.148438 0 29.238281-13.089843 29.238281-29.238281s-13.089843-29.238281-29.238281-29.238281zm0 0" fill="#2332b7"/><path d="m182.238281 320.90625c0 16.148438-13.089843 29.238281-29.238281 29.238281s-29.238281-13.089843-29.238281-29.238281 13.089843-29.238281 29.238281-29.238281 29.238281 13.089843 29.238281 29.238281zm0 0" fill="#3838ba"/><path d="m391.238281 320.90625c0 16.148438-13.089843 29.238281-29.238281 29.238281s-29.238281-13.089843-29.238281-29.238281 13.089843-29.238281 29.238281-29.238281 29.238281 13.089843 29.238281 29.238281zm0 0" fill="#2332b7"/></svg>