<svg height="512pt" viewBox="0 0 512 512" width="512pt" xmlns="http://www.w3.org/2000/svg"><path d="m512 256c0 141.386719-114.613281 256-256 256s-256-114.613281-256-256 114.613281-256 256-256 256 114.613281 256 256zm0 0" fill="#ff0335"/><path d="m512 256c0-15.515625-1.382812-30.710938-4.027344-45.464844l-125.0625-125.0625c-5.078125-5.078125-13.308594-5.078125-18.386718 0l-5.167969 5.167969c-5.078125 5.078125-5.078125 13.308594 0 18.386719l4.613281 4.613281-41.886719 41.882813-24.949219-24.945313-21.210937 21.210937 23.976563 23.980469-3.050782 2.832031-88.484375-87.625-78.125 102.574219 31.773438 31.683594-7.148438 22.902344 32.40625 32.117187-68.195312 63.261719-14.171875 63.582031 99.753906 99.75c16.589844 3.375 33.757812 5.152344 51.34375 5.152344 141.386719 0 256-114.613281 256-256zm0 0" fill="#c2001b"/><path d="m368.789062 108.8125 34.394532 34.390625-54.738282 54.738281-34.390624-34.394531zm0 0" fill="#ffec97"/><path d="m331.246094 180.75 54.738281-54.738281 17.195313 17.199219-54.734376 54.734374zm0 0" fill="#ffdf47"/><path d="m342.445312 205.402344-35.847656-35.847656-187.523437 173.960937-14.167969 63.578125 63.578125-14.167969zm0 0" fill="#fff"/><path d="m168.488281 392.925781-63.582031 14.167969 219.613281-219.613281 17.925781 17.925781-6.214843 6.695312zm0 0" fill="#fff5cb"/><path d="m275.917969 151.792969 21.214843-21.214844 84.285157 84.289063-21.210938 21.210937zm0 0" fill="#ffdf47"/><path d="m318.058594 193.9375 21.214844-21.214844 42.144531 42.144532-21.214844 21.214843zm0 0" fill="#fdc000"/><path d="m402.976562 152.644531-43.621093-43.621093c-5.078125-5.074219-5.078125-13.304688 0-18.382813l5.167969-5.171875c5.078124-5.074219 13.308593-5.074219 18.386718 0l43.621094 43.621094c5.074219 5.078125 5.074219 13.308594 0 18.386718l-5.171875 5.167969c-5.078125 5.078125-13.308594 5.078125-18.382813 0zm0 0" fill="#ffdf47"/><path d="m426.527344 147.472656-5.171875 5.167969c-5.074219 5.078125-13.304688 5.078125-18.382813 0l-21.808594-21.804687 23.554688-23.554688 21.808594 21.808594c5.074218 5.074218 5.074218 13.304687 0 18.382812zm0 0" fill="#fdc000"/><path d="m208.363281 90.976562-78.121093 102.570313h41.664062l-17.042969 54.589844 59.242188-76.421875h-32.207031zm0 0" fill="#fff5cb"/><path d="m352.675781 265.273438-74.714843 98.101562h39.847656l-16.300782 52.207031 56.660157-73.089843h-30.804688zm0 0" fill="#ffdf47"/></svg>