<svg height="512pt" viewBox="0 0 512.001 512" width="512pt" xmlns="http://www.w3.org/2000/svg"><path d="m368.46875 111.890625c-25.992188 0-47.132812 21.144531-47.132812 47.132813v48.792968c0 8.285156 6.714843 15 15 15 8.28125 0 15-6.714844 15-15v-.003906l34.265624-.007812c0 8.28125 6.714844 14.996093 15 14.996093 8.28125 0 15-6.714843 15-15v-48.777343c0-25.988282-21.144531-47.132813-47.132812-47.132813zm0 0" fill="#ff4949"/><path d="m368.46875 111.890625v95.917969l17.132812-.003906c0 8.28125 6.714844 14.996093 15 14.996093 8.28125 0 15-6.714843 15-15v-48.777343c0-25.988282-21.144531-47.132813-47.132812-47.132813zm0 0" fill="#f30051"/><path d="m400.601562 192.800781h-160.667968c-8.28125 0-15 6.714844-15 15v176.738281c0 8.285157 6.71875 15 15 15h213.964844c2.953124 0 5.84375-.871093 8.304687-2.507812 31.183594-20.730469 49.796875-55.433594 49.796875-92.832031 0-61.425781-49.976562-111.398438-111.398438-111.398438zm0 0" fill="#00abe9"/><path d="m400.601562 192.800781h-40.167968v206.738281h93.464844c2.953124 0 5.84375-.871093 8.304687-2.507812 31.183594-20.730469 49.796875-55.433594 49.796875-92.832031 0-61.425781-49.976562-111.398438-111.398438-111.398438zm0 0" fill="#0065a3"/><path d="m239.933594 64.265625h-192.800782c-8.28125 0-15 6.71875-15 15v305.269531c0 8.28125 6.71875 15 15 15h192.800782c8.285156 0 15-6.71875 15-15v-305.269531c0-8.28125-6.714844-15-15-15zm-33.199219 159.601563c0 8.285156-6.714844 15-15 15h-96.398437c-8.285157 0-15-6.714844-15-15v-96.398438c0-8.285156 6.714843-15 15-15h96.398437c8.285156 0 15 6.714844 15 15zm0 0" fill="#ffde46"/><path d="m239.933594 64.265625h-96.398438v48.203125h48.199219c8.285156 0 15 6.714844 15 15v96.398438c0 8.28125-6.714844 15-15 15h-48.199219v160.664062h96.398438c8.285156 0 15-6.714844 15-15v-305.265625c0-8.28125-6.714844-15-15-15zm0 0" fill="#ff9f04"/><path d="m239.933594 0h-192.800782c-25.988281 0-47.132812 21.144531-47.132812 47.132812 0 25.988282 21.144531 47.132813 47.132812 47.132813h192.800782c25.988281 0 47.132812-21.144531 47.132812-47.132813 0-25.988281-21.144531-47.132812-47.132812-47.132812zm0 0" fill="#ff4949"/><path d="m286.789062 369.535156h-61.582031c-8.28125 0-15 6.714844-15 15v64.265625c0 8.28125 6.71875 15 15 15h61.582031c8.285157 0 15-6.71875 15-15v-64.269531c0-8.28125-6.714843-14.996094-15-14.996094zm0 0" fill="#ff4949"/><path d="m286.789062 369.535156h-30.789062v94.265625h30.789062c8.285157 0 15-6.71875 15-15v-64.269531c0-8.28125-6.714843-14.996094-15-14.996094zm0 0" fill="#f30051"/><path d="m77.925781 433.800781v-34.269531c8.28125 0 15-6.714844 15-15 0-8.28125-6.71875-15-15-15h-30.792969c-25.988281.003906-47.132812 21.144531-47.132812 47.136719 0 25.988281 21.144531 47.132812 47.132812 47.132812h30.792969c8.28125 0 15-6.71875 15-15 0-8.285156-6.71875-15-15-15zm0 0" fill="#ff4949"/><path d="m464.867188 369.535156h-30.792969c-8.28125 0-14.996094 6.714844-14.996094 15 0 8.28125 6.714844 15 14.996094 15v34.265625c-8.28125 0-14.996094 6.714844-14.996094 15 0 8.28125 6.714844 15 14.996094 15h30.792969c25.988281 0 47.132812-21.144531 47.132812-47.136719 0-25.988281-21.144531-47.128906-47.132812-47.128906zm0 0" fill="#f30051"/><path d="m360.433594 321.332031c-52.566406 0-95.332032 42.769531-95.332032 95.332031 0 52.570313 42.765626 95.335938 95.332032 95.335938s95.335937-42.765625 95.335937-95.335938c0-52.5625-42.769531-95.332031-95.335937-95.332031zm0 0" fill="#00317e"/><path d="m360.433594 321.332031v190.667969c52.566406 0 95.335937-42.765625 95.335937-95.335938 0-52.5625-42.769531-95.332031-95.335937-95.332031zm0 0" fill="#001035"/><path d="m360.433594 361.5c-30.417969 0-55.164063 24.746094-55.164063 55.164062 0 30.421876 24.746094 55.167969 55.164063 55.167969 30.417968 0 55.167968-24.746093 55.167968-55.167969 0-30.417968-24.75-55.164062-55.167968-55.164062zm0 0" fill="#c5e1e6"/><path d="m151.566406 321.332031c-52.566406 0-95.332031 42.769531-95.332031 95.332031 0 52.570313 42.765625 95.335938 95.332031 95.335938s95.335938-42.765625 95.335938-95.335938c0-52.5625-42.769532-95.332031-95.335938-95.332031zm0 0" fill="#00317e"/><path d="m246.902344 416.667969c0-52.566407-42.769532-95.335938-95.335938-95.335938v190.667969c52.566406 0 95.335938-42.765625 95.335938-95.332031zm0 0" fill="#001035"/><path d="m151.566406 361.5c-30.417968 0-55.164062 24.746094-55.164062 55.164062 0 30.421876 24.746094 55.167969 55.164062 55.167969 30.421875 0 55.167969-24.746093 55.167969-55.167969 0-30.417968-24.746094-55.164062-55.167969-55.164062zm0 0" fill="#c5e1e6"/><path d="m239.933594 0h-96.398438v94.265625h96.398438c25.988281 0 47.132812-21.144531 47.132812-47.132813 0-25.988281-21.144531-47.132812-47.132812-47.132812zm0 0" fill="#f30051"/><g fill="#8db9c4"><path d="m206.734375 416.667969c0-30.421875-24.746094-55.167969-55.167969-55.167969v110.332031c30.421875 0 55.167969-24.746093 55.167969-55.164062zm0 0"/><path d="m360.433594 361.5v110.332031c30.417968 0 55.167968-24.746093 55.167968-55.167969 0-30.417968-24.75-55.164062-55.167968-55.164062zm0 0"/></g></svg>